<svg width="1086" height="445" viewBox="0 0 1086 445" fill="none" xmlns="http://www.w3.org/2000/svg">
<mask id="mask0_46_2937" style="mask-type:alpha" maskUnits="userSpaceOnUse" x="0" y="0" width="1086" height="445">
<rect x="0.550903" y="0.404297" width="1085" height="443.986" fill="#D9D9D9"/>
</mask>
<g mask="url(#mask0_46_2937)">
<path opacity="0.03" d="M-27.8248 497.709V-19.9238H231.861C374.802 -19.9238 490.678 95.9522 490.678 238.893C490.678 381.833 374.802 497.709 231.861 497.709H200.108L342.711 357.772C375.118 325.972 393.375 282.475 393.375 237.072C393.375 153.584 329.973 81.8628 243.997 81.8628H73.5267V418.235L182.297 313.453C114.134 272.241 143.401 157.146 225.8 157.146C300.469 157.146 335.968 253.777 283.191 302.959L86.1413 497.709H-27.8248Z" fill="white"/>
</g>
</svg>
